<?xml version="1.0" encoding="utf-8"?>
<!-- Generator: Adobe Illustrator 26.0.1, SVG Export Plug-In . SVG Version: 6.00 Build 0)  -->
<svg version="1.1" id="Layer_1" xmlns="http://www.w3.org/2000/svg" xmlns:xlink="http://www.w3.org/1999/xlink" x="0px" y="0px"
	 viewBox="0 0 2000 2000" style="enable-background:new 0 0 2000 2000;" xml:space="preserve">
<style type="text/css">
	.st0{fill:#12C7FA;}
	.st1{fill:#5A6CF3;}
	.st2{fill:#28A9F9;}
</style>
<g>
	<g>
		<g>
			<path d="M972.36,1067.25H948l-14.44-85.11l-28.11,85.11h-22.53l-28.79-85.11l-14.34,85.11h-25.03l23.2-134.5h24.94l31.29,93.87
				l31.29-93.87h24.36L972.36,1067.25z"/>
			<path d="M1071.12,1070.33c-20.03,0-36.71-6.87-50.06-20.6c-13.35-14.25-20.03-30.71-20.03-49.39c0-13.09,3.14-24.97,9.44-35.62
				c6.03-10.72,14.54-19.25,25.51-25.61c10.91-6.29,22.62-9.43,35.14-9.43c18.74,0,34.98,6.87,48.72,20.6
				c13.8,13.99,20.7,30.68,20.7,50.06c0,19.96-6.68,36.62-20.03,49.97C1106.97,1063.66,1090.5,1070.33,1071.12,1070.33z
				 M1071.12,1045.97c11.81,0,22.01-4.36,30.62-13.09c8.73-8.54,13.09-19.38,13.09-32.54c0-12.58-4.37-23.43-13.09-32.54
				c-8.34-8.73-18.77-13.09-31.29-13.09s-22.91,4.37-31.19,13.09c-8.34,8.54-12.52,19.38-12.52,32.54
				c0,15.02,5.42,26.89,16.27,35.62C1051.16,1042.64,1060.53,1045.97,1071.12,1045.97z"/>
			<path d="M1249.6,1070.33c-20.03,0-36.71-6.87-50.06-20.6c-13.35-14.25-20.03-30.71-20.03-49.39c0-13.09,3.14-24.97,9.44-35.62
				c6.03-10.72,14.54-19.25,25.51-25.61c10.91-6.29,22.62-9.43,35.14-9.43c18.74,0,34.98,6.87,48.72,20.6
				c13.8,13.99,20.7,30.68,20.7,50.06c0,19.96-6.68,36.62-20.03,49.97C1285.44,1063.66,1268.98,1070.33,1249.6,1070.33z
				 M1249.6,1045.97c11.81,0,22.01-4.36,30.62-13.09c8.73-8.54,13.09-19.38,13.09-32.54c0-12.58-4.37-23.43-13.09-32.54
				c-8.34-8.73-18.77-13.09-31.29-13.09c-12.52,0-22.91,4.37-31.19,13.09c-8.34,8.54-12.52,19.38-12.52,32.54
				c0,15.02,5.42,26.89,16.27,35.62C1229.63,1042.64,1239.01,1045.97,1249.6,1045.97z"/>
			<path d="M1411.32,1067.44h-24.36l-47.56-133.83h26.28l46.89,131.9L1411.32,1067.44z M1421.91,1039.23l-13.09-36.87l25.03-68.74
				h26.19L1421.91,1039.23z"/>
			<path d="M1564,1067.44h-25.61v-58.15l-39.38-75.67h27.53l5.01,9.34l32.45,63.83V1067.44z M1575.26,988.59l-13.77-26.19
				l15.02-28.79h26.96L1575.26,988.59z"/>
		</g>
		<g>
			<polygon points="614.13,1074.83 396.53,1200.46 396.53,799.54 429.2,818.4 429.27,1143.75 575.88,1059.11 			"/>
			<polygon class="st0" points="501.14,859.93 501.14,897.73 462.03,875.15 462.03,837.35 			"/>
			<polygon class="st1" points="645,942.99 645,980.8 605.9,958.22 605.9,920.41 			"/>
			<polygon class="st2" points="573.07,901.46 573.07,939.26 533.97,916.68 533.97,878.88 			"/>
			<polygon points="743.73,1000 615.27,1074.17 615.27,1036.37 677.83,1000.25 677.83,961.94 			"/>
			<path class="st0" d="M497.78,1000c0,8.43-6.84,15.27-15.27,15.27c-8.43,0-15.27-6.84-15.27-15.27s6.84-15.27,15.27-15.27
				C490.94,984.73,497.78,991.57,497.78,1000z"/>
			<path class="st2" d="M553.28,1000c0,4.49-1.94,8.51-5.03,11.31c-2.71,2.46-6.29,3.96-10.24,3.96c-8.43,0-15.27-6.84-15.27-15.27
				c0-7.03,4.76-12.93,11.22-14.71c1.29-0.35,2.64-0.56,4.05-0.56c4.19,0,7.96,1.68,10.72,4.41
				C551.54,991.9,553.28,995.74,553.28,1000z"/>
			<path class="st1" d="M608.78,1000c0,8.43-6.83,15.27-15.27,15.27c-8.43,0-15.26-6.84-15.26-15.27s6.83-15.27,15.26-15.27
				c5.11,0,9.61,2.51,12.38,6.35C607.71,993.59,608.78,996.67,608.78,1000z"/>
		</g>
	</g>
	<g>
		<g>
			<polygon points="3146.17,1214.58 2522.18,1574.84 2522.18,425.16 2615.85,479.24 2616.05,1412.23 3036.5,1169.52 			"/>
			<polygon class="st0" points="2822.15,598.33 2822.15,706.73 2710,641.99 2710,533.59 			"/>
			<polygon class="st1" points="3234.68,836.52 3234.68,944.95 3122.56,880.2 3122.56,771.77 			"/>
			<polygon class="st2" points="3028.42,717.43 3028.42,825.82 2916.3,761.08 2916.3,652.68 			"/>
			<polygon points="3517.82,1000 3149.45,1212.7 3149.45,1104.31 3328.83,1000.7 3328.83,890.87 			"/>
			<path class="st0" d="M2812.53,1000c0,24.17-19.61,43.79-43.79,43.79c-24.17,0-43.79-19.61-43.79-43.79
				c0-24.17,19.61-43.79,43.79-43.79C2792.92,956.21,2812.53,975.83,2812.53,1000z"/>
			<path class="st2" d="M2971.69,1000c0,12.88-5.57,24.41-14.42,32.42c-7.78,7.04-18.04,11.37-29.37,11.37
				c-24.17,0-43.79-19.61-43.79-43.79c0-20.15,13.65-37.08,32.19-42.18c3.69-1.01,7.58-1.61,11.6-1.61c12,0,22.83,4.83,30.74,12.64
				C2966.69,976.77,2971.69,987.8,2971.69,1000z"/>
			<path class="st1" d="M3130.84,1000c0,24.17-19.58,43.79-43.79,43.79c-24.17,0-43.75-19.61-43.75-43.79
				c0-24.17,19.58-43.79,43.75-43.79c14.65,0,27.56,7.21,35.51,18.21C3127.76,981.63,3130.84,990.45,3130.84,1000z"/>
		</g>
	</g>
</g>
</svg>
